<?xml version="1.0" encoding="UTF-8" standalone="no"?>
<svg width="70px" height="97px" viewBox="0 0 70 97" version="1.1" xmlns="http://www.w3.org/2000/svg" xmlns:xlink="http://www.w3.org/1999/xlink" xmlns:sketch="http://www.bohemiancoding.com/sketch/ns">
    <!-- Generator: Sketch 3.0.3 (7891) - http://www.bohemiancoding.com/sketch -->
    <title>icon_left</title>
    <desc>Created with Sketch.</desc>
    <defs></defs>
    <g id="Page-1" stroke="none" stroke-width="1" fill="none" fill-rule="evenodd" sketch:type="MSPage">
        <path d="M27.7457638,80.7448287 L-10.0135582,31.710346 C-11.9661005,28.9999991 -13.5932176,27.9034627 -13.9186429,25.2551736 C-14.2440683,22.6068845 -13.5932273,20.2069085 -11.9661006,18.0551736 C-10.3389738,15.9034387 -8.26441826,14.6206929 -5.74237175,14.2068977 C-3.22032524,13.7931025 -1,14.2068977 1.21356045,16.0689667 L30.6238503,55.7907531 C31.9361615,57.5631717 34.1056315,57.5942049 35.4706226,55.8590753 C35.4706226,55.8590753 65.0411437,18.2504761 67,16.0000001 C69,14.0827598 71.7355813,13.7517236 74.3389842,14.0827598 C76.942387,14.4137959 79.0576201,15.6551628 80.6847469,17.8068977 C82.3118737,19.9586326 82.9627146,22.3586086 82.6372893,25.0068977 C82.3118639,27.6551868 80.6847458,29 78.7322045,31.4620701 L39.2169503,80.7448287 C37,82.9999971 35,82.9999971 33,82.9999971 C31,82.9999971 29,81.9999971 27.7457638,80.7448287 Z" id="ó°€-copy-3" fill="#EBEBEB" sketch:type="MSShapeGroup" transform="translate(34.500000, 48.500000) scale(-1, 1) rotate(-90.000000) translate(-34.500000, -48.500000) "></path>
    </g>
</svg>