<?xml version="1.0" encoding="UTF-8" standalone="no"?>
<svg width="78px" height="78px" viewBox="0 0 78 78" version="1.1" xmlns="http://www.w3.org/2000/svg" xmlns:xlink="http://www.w3.org/1999/xlink">
    <!-- Generator: Sketch 39.1 (31720) - http://www.bohemiancoding.com/sketch -->
    <title>icon_settings</title>
    <desc>Created with Sketch.</desc>
    <defs></defs>
    <g id="Page-1" stroke="none" stroke-width="1" fill="none" fill-rule="evenodd">
        <path d="M56.1643261,0.00633898229 C55.9882453,0.00212076084 55.8116614,0 55.6345969,0 C43.2825252,0 33.2691937,10.3206784 33.2691937,23.0518818 C33.2691937,24.944276 33.4904333,26.7834108 33.9077078,28.5433078 L0.0118502156,63.5200063 C0.0118502156,63.5200063 -0.311331477,72.5306273 2.41779646,75.3435225 C5.16569549,78.175765 13.5540858,77.9977813 13.5540858,77.9977813 L46.4604447,44.0814018 C49.2597884,45.3807533 52.3652729,46.1037637 55.6345969,46.1037637 C67.9866686,46.1037637 78,35.7830853 78,23.0518818 C78,22.8755182 77.9980784,22.6996172 77.9942557,22.5241998 L75.4584444,19.9084769 L66.8172984,28.8148523 L65.829014,27.7962337 C64.4251816,28.4505874 62.8668372,28.8148523 61.2259477,28.8148523 C55.0499118,28.8148523 50.0432461,23.6545131 50.0432461,17.2889114 C50.0432461,15.5976568 50.3966633,13.9914808 51.0315306,12.5445596 L50.0432461,11.5259409 L58.6910573,2.61269568 L56.1643261,0.00633898229 Z M12.3016283,69.1556455 C14.6176418,69.1556455 16.4951414,67.2205183 16.4951414,64.8334177 C16.4951414,62.4463171 14.6176418,60.5111899 12.3016283,60.5111899 C9.98561487,60.5111899 8.10811523,62.4463171 8.10811523,64.8334177 C8.10811523,67.2205183 9.98561487,69.1556455 12.3016283,69.1556455 Z" id="settings-2-copy" fill="#DDDDDD"></path>
    </g>
</svg>