<?xml version="1.0" encoding="UTF-8" standalone="no"?>
<svg width="100px" height="100px" viewBox="0 0 100 100" version="1.1" xmlns="http://www.w3.org/2000/svg" xmlns:xlink="http://www.w3.org/1999/xlink" xmlns:sketch="http://www.bohemiancoding.com/sketch/ns">
    <!-- Generator: Sketch 3.0.3 (7891) - http://www.bohemiancoding.com/sketch -->
    <title>icon_info</title>
    <desc>Created with Sketch.</desc>
    <defs></defs>
    <g id="Page-1" stroke="none" stroke-width="1" fill="none" fill-rule="evenodd" sketch:type="MSPage">
        <path d="M50,100 C77.6142389,100 100,77.6142389 100,50 C100,22.3857611 77.6142389,0 50,0 C22.3857611,0 0,22.3857611 0,50 C0,77.6142389 22.3857611,100 50,100 Z M50,87.5 C70.7106791,87.5 87.5,70.7106791 87.5,50 C87.5,29.2893209 70.7106791,12.5 50,12.5 C29.2893209,12.5 12.5,29.2893209 12.5,50 C12.5,70.7106791 29.2893209,87.5 50,87.5 Z" id="clock-2" fill="#EBEBEB" sketch:type="MSShapeGroup"></path>
        <path d="M45.0058587,41 C43.8980535,41 43,41.8898926 43,42.9997073 L43,75.0002927 C43,76.1047006 43.8970601,77 45.0058587,77 L54.9941413,77 C56.1019465,77 57,76.1101074 57,75.0002927 L57,42.9997073 C57,41.8952994 56.1029399,41 54.9941413,41 L45.0058587,41 Z M50,37 C54.4182782,37 58,33.4182782 58,29 C58,24.5817218 54.4182782,21 50,21 C45.5817218,21 42,24.5817218 42,29 C42,33.4182782 45.5817218,37 50,37 Z" id="Rectangle-5" fill="#EBEBEB" sketch:type="MSShapeGroup"></path>
    </g>
</svg>