<?xml version="1.0" encoding="UTF-8" standalone="no"?>
<svg width="70px" height="97px" viewBox="0 0 70 97" version="1.1" xmlns="http://www.w3.org/2000/svg" xmlns:xlink="http://www.w3.org/1999/xlink" xmlns:sketch="http://www.bohemiancoding.com/sketch/ns">
    <!-- Generator: Sketch 3.0.3 (7891) - http://www.bohemiancoding.com/sketch -->
    <title>icon_right</title>
    <desc>Created with Sketch.</desc>
    <defs></defs>
    <g id="Page-1" stroke="none" stroke-width="1" fill="none" fill-rule="evenodd" sketch:type="MSPage">
        <path d="M28.7457638,80.7448287 L-9.01355819,31.710346 C-10.9661005,28.9999991 -12.5932176,27.9034627 -12.9186429,25.2551736 C-13.2440683,22.6068845 -12.5932273,20.2069085 -10.9661006,18.0551736 C-9.33897379,15.9034387 -7.26441826,14.6206929 -4.74237175,14.2068977 C-2.22032524,13.7931025 0,14.2068977 2.21356045,16.0689667 L31.6238503,55.7907531 C32.9361615,57.5631717 35.1056315,57.5942049 36.4706226,55.8590753 C36.4706226,55.8590753 66.0411437,18.2504761 68,16.0000001 C70,14.0827598 72.7355813,13.7517236 75.3389842,14.0827598 C77.942387,14.4137959 80.0576201,15.6551628 81.6847469,17.8068977 C83.3118737,19.9586326 83.9627146,22.3586086 83.6372893,25.0068977 C83.3118639,27.6551868 81.6847458,29 79.7322045,31.4620701 L40.2169503,80.7448287 C38,82.9999971 36,82.9999971 34,82.9999971 C32,82.9999971 30,81.9999971 28.7457638,80.7448287 Z" id="ó°€-copy-2" fill="#EBEBEB" sketch:type="MSShapeGroup" transform="translate(35.500000, 48.500000) rotate(-90.000000) translate(-35.500000, -48.500000) "></path>
    </g>
</svg>