<?xml version="1.0" encoding="UTF-8" standalone="no"?>
<svg width="98px" height="118px" viewBox="0 0 98 118" version="1.1" xmlns="http://www.w3.org/2000/svg" xmlns:xlink="http://www.w3.org/1999/xlink">
    <!-- Generator: Sketch 39.1 (31720) - http://www.bohemiancoding.com/sketch -->
    <title>Shape</title>
    <desc>Created with Sketch.</desc>
    <defs></defs>
    <g id="Page-1" stroke="none" stroke-width="1" fill="none" fill-rule="evenodd">
        <path d="M88.2,117.358025 L9.8,117.358025 C4.9,117.358025 0,112.468107 0,107.578189 L0,58.6790123 C0,53.7890947 4.9,48.899177 9.8,48.899177 L14.7,48.899177 L14.7,34.2294239 C14.7,14.6697531 29.4,0 49,0 C68.6,0 83.3,14.6697531 83.3,34.2294239 L83.3,48.899177 L88.2,48.899177 C93.1,48.899177 98,53.7890947 98,58.6790123 L98,107.578189 C98,112.468107 93.1,117.358025 88.2,117.358025 L88.2,117.358025 Z M68.6,34.2294239 C68.6,24.4495885 58.8,14.6697531 49,14.6697531 C39.2,14.6697531 29.4,24.4495885 29.4,34.2294239 L29.4,48.899177 L68.6,48.899177 L68.6,34.2294239 L68.6,34.2294239 Z" id="Shape" fill="#EBEBEB"></path>
    </g>
</svg>