<?xml version="1.0" encoding="UTF-8" standalone="no"?>
<svg width="47px" height="64px" viewBox="0 0 47 64" version="1.1" xmlns="http://www.w3.org/2000/svg" xmlns:xlink="http://www.w3.org/1999/xlink" xmlns:sketch="http://www.bohemiancoding.com/sketch/ns">
    <!-- Generator: Sketch 3.0.3 (7891) - http://www.bohemiancoding.com/sketch -->
    <title>icon_pause</title>
    <desc>Created with Sketch.</desc>
    <defs></defs>
    <g id="Page-1" stroke="none" stroke-width="1" fill="none" fill-rule="evenodd" sketch:type="MSPage">
        <path d="M7.9998866,0 C3.58167123,0 0,3.57805502 0,8.0085154 L0,55.9914846 C0,60.4144655 3.57774184,64 7.9998866,64 L10.0001134,64 C14.4183288,64 18,60.421945 18,55.9914846 L18,8.0085154 C18,3.58553448 14.4222582,0 10.0001134,0 L7.9998866,0 Z M36.9998866,0 C32.5816712,0 29,3.57805502 29,8.0085154 L29,55.9914846 C29,60.4144655 32.5777418,64 36.9998866,64 L39.0001134,64 C43.4183288,64 47,60.421945 47,55.9914846 L47,8.0085154 C47,3.58553448 43.4222582,0 39.0001134,0 L36.9998866,0 Z" id="Rectangle-2" fill="#EBEBEB" sketch:type="MSShapeGroup"></path>
    </g>
</svg>