<?xml version="1.0" encoding="UTF-8" standalone="no"?>
<svg width="63px" height="65px" viewBox="0 0 63 65" version="1.1" xmlns="http://www.w3.org/2000/svg" xmlns:xlink="http://www.w3.org/1999/xlink" xmlns:sketch="http://www.bohemiancoding.com/sketch/ns">
    <!-- Generator: Sketch 3.0.3 (7891) - http://www.bohemiancoding.com/sketch -->
    <title>icon_qmenu</title>
    <desc>Created with Sketch.</desc>
    <defs></defs>
    <g id="Page-1" stroke="none" stroke-width="1" fill="none" fill-rule="evenodd" sketch:type="MSPage">
        <path d="M56.8704928,34.9898951 C56.826887,35.6089766 56.7614794,36.2722683 56.6742678,36.9797901 C58.0696524,37.7757521 59.5304236,38.4390439 61.0566255,38.9696852 C62.5828273,39.5003265 61.0566255,38.9696852 61.0566255,38.9696852 C62.6822063,39.5558125 63.3194839,41.6872113 62.481758,43.7260793 L60.9396594,47.4792582 C60.1011575,49.5200148 57.7783797,50.4462218 56.6088595,49.914108 C56.6088595,49.914108 58.0478498,50.5774097 56.6088595,49.914108 C55.1698692,49.2508064 53.6654928,48.6980633 52.0956852,48.2558622 C50.4386661,50.4668677 48.5636462,52.3240845 46.4705694,53.8275683 C46.9066271,55.4194923 47.4734936,56.9450633 48.1711858,58.404327 C48.8688781,59.8635907 48.1711858,58.404327 48.1711858,58.404327 C48.8936662,59.9795441 47.8342481,61.9516272 45.7897392,62.8155077 L42.1803671,64.3406006 C40.1426501,65.2016113 37.8797271,64.2149316 37.4442209,62.9810856 C37.4442209,62.9810856 37.9674901,64.4845694 37.4442209,62.9810856 C36.9209517,61.4776018 36.2232699,59.9741406 35.3511545,58.4706568 C34.0429815,58.7359775 32.7348282,58.8686358 31.4266552,58.8686358 C30.1184822,58.8686358 28.8103288,58.7359775 27.5021558,58.4706568 C26.717252,59.9741406 26.0631753,61.4776018 25.5399061,62.9810856 C25.0166369,64.4845694 25.5399061,62.9810856 25.5399061,62.9810856 C24.9619218,64.5929357 22.8406909,65.2094947 20.8062137,64.3599664 L17.0611173,62.7961419 C15.0247555,61.9458266 14.1682312,59.6517321 14.7475328,58.404327 C14.7475328,58.404327 14.0934463,59.8635907 14.7475328,58.404327 C15.4016193,56.9450633 15.9466832,55.4194923 16.3827409,53.8275683 C14.2896641,52.2356443 12.4582494,50.3784275 10.8884418,48.2558622 C9.31863416,48.6980633 7.81425778,49.2508064 6.37526748,49.914108 C4.93627718,50.5774097 6.37526748,49.914108 6.37526748,49.914108 C4.82193465,50.6101342 2.88219346,49.5181261 2.04446754,47.4792582 L0.502369034,43.7260793 C-0.336132897,41.6853227 0.660954579,39.4056075 1.86209319,38.9696852 C1.86209319,38.9696852 0.379497128,39.5003265 1.86209319,38.9696852 C3.34468926,38.4390439 4.82726309,37.7757521 6.30985915,36.9797901 C6.04822455,35.6531868 5.91740922,34.3266033 5.91740922,33 C5.91740922,31.5849564 6.04822455,30.258373 6.30985915,29.0202099 C4.82726309,28.1358076 3.34468926,27.4282965 1.86209319,26.8976551 C0.379497128,26.3670138 1.86209319,26.8976551 1.86209319,26.8976551 C0.272636346,26.3115278 -0.33535689,24.180129 0.502369034,22.141261 L2.04446754,18.3880821 C2.88296947,16.3473255 5.19054785,15.4481791 6.37526748,16.0195621 C6.37526748,16.0195621 4.93627718,15.3120403 6.37526748,16.0195621 C7.81425778,16.7270839 9.31863416,17.3019367 10.8884418,17.7441378 C12.3710378,15.6215725 14.2024526,13.7201362 16.3827409,12.039772 C15.9466832,10.447848 15.4016193,8.92227702 14.7475328,7.46301334 C14.0934463,6.00374967 14.7475328,7.46301334 14.7475328,7.46301334 C13.9889284,5.88779621 14.9395164,3.74804669 16.8911,2.71619044 C16.8911,2.71619044 16.9059983,2.62093933 18.7374405,1.82497733 C20.5688827,1.02901532 20.660381,1.11501552 20.660381,1.11501552 C22.777284,0.481393814 25.0931606,1.6541252 25.5399061,2.95258453 C25.5399061,2.95258453 25.0166369,1.40488063 25.5399061,2.95258453 C26.0631753,4.50028843 26.717252,5.98163994 27.5021558,7.39668351 C28.8103288,7.13136284 30.1184822,6.9987045 31.4266552,6.9987045 C32.7348282,6.9987045 34.0429815,7.13136284 35.3511545,7.39668351 C36.2232699,5.98163994 36.9209517,4.50028843 37.4442209,2.95258453 C37.9674901,1.40488063 37.4442209,2.95258453 37.4442209,2.95258453 C38.0222052,1.30410149 40.1358582,0.662859195 42.1803671,1.5267397 L45.7897392,3.05183266 C47.8274563,3.91284334 48.7417145,6.24622984 48.1711858,7.46301334 C48.1711858,7.46301334 48.8688781,6.00374967 48.1711858,7.46301334 C47.4734936,8.92227702 46.9066271,10.447848 46.4705694,12.039772 C48.6508578,13.631696 50.5258776,15.5331323 52.0956852,17.7441378 C53.6654928,17.3019367 55.1698692,16.7270839 56.6088595,16.0195621 C58.0478498,15.3120403 56.6088595,16.0195621 56.6088595,16.0195621 C58.1621923,15.286903 60.1019335,16.3492142 60.9396594,18.3880821 L62.481758,22.141261 C63.3202599,24.1820177 62.3212022,26.4503074 61.0566255,26.8976551 C61.0566255,26.8976551 62.5828273,26.3670138 61.0566255,26.8976551 C59.5304236,27.4282965 58.0696524,28.1358076 56.6742678,29.0202099 C56.7614794,29.6392914 56.826887,30.2804734 56.8704928,30.9437751 C56.9140986,31.6070768 56.9359011,32.2924782 56.9359011,33 C56.9359011,33.7075218 56.9140986,34.3708135 56.8704928,34.9898951 Z M31.4266552,49.8477782 C33.7813666,49.8477782 35.9616222,49.4055837 37.9674875,48.5211815 C39.9733527,47.6367793 41.7393598,46.4428542 43.2655616,44.9393704 C44.7917635,43.4358866 45.9909041,41.6449989 46.8630194,39.5666537 C47.7351347,37.4883085 48.1711858,35.2994458 48.1711858,33 C48.1711858,30.612114 47.7351347,28.4011416 46.8630194,26.3670165 C45.9909041,24.3328913 44.7917635,22.5420037 43.2655616,20.9942998 C41.7393598,19.4465959 39.9733527,18.2305611 37.9674875,17.3461588 C35.9616222,16.4617566 33.7813666,16.0195621 31.4266552,16.0195621 C29.1591553,16.0195621 27.0007022,16.4617566 24.9512312,17.3461588 C22.9017602,18.2305611 21.1357531,19.4465959 19.653157,20.9942998 C18.170561,22.5420037 16.9932229,24.3328913 16.1211076,26.3670165 C15.2489923,28.4011416 14.8129411,30.612114 14.8129411,33 C14.8129411,35.2994458 15.2489923,37.4883085 16.1211076,39.5666537 C16.9932229,41.6449989 18.170561,43.4358866 19.653157,44.9393704 C21.1357531,46.4428542 22.9017602,47.6367793 24.9512312,48.5211815 C27.0007022,49.4055837 29.1591553,49.8477782 31.4266552,49.8477782 Z M31.4266552,20.6626506 C33.0836743,20.6626506 34.6534584,20.9942965 36.1360544,21.6575981 C37.6186505,22.3208998 38.9050013,23.2052888 39.9951455,24.3107916 C41.0852896,25.4162943 41.9355893,26.7207681 42.5460701,28.2242518 C43.1565508,29.7277356 43.4617866,31.3196358 43.4617866,33 C43.4617866,34.6803642 43.1565508,36.2501546 42.5460701,37.7094183 C41.9355893,39.168682 41.0852896,40.451046 39.9951455,41.5565488 C38.9050013,42.6620516 37.6186505,43.5464405 36.1360544,44.2097422 C34.6534584,44.8730439 33.0836743,45.2046897 31.4266552,45.2046897 C29.769636,45.2046897 28.199852,44.8730439 26.7172559,44.2097422 C25.2346598,43.5464405 23.948309,42.6620516 22.8581649,41.5565488 C21.7680207,40.451046 20.917721,39.168682 20.3072403,37.7094183 C19.6967595,36.2501546 19.3915237,34.6803642 19.3915237,33 C19.3915237,31.3196358 19.6967595,29.7277356 20.3072403,28.2242518 C20.917721,26.7207681 21.7680207,25.4162943 22.8581649,24.3107916 C23.948309,23.2052888 25.2346598,22.3208998 26.7172559,21.6575981 C28.199852,20.9942965 29.769636,20.6626506 31.4266552,20.6626506 Z M31.4266552,38.3063868 C32.9092512,38.3063868 34.1737995,37.7978632 35.2203379,36.7808006 C36.2668763,35.7637381 36.7901377,34.5034838 36.7901377,33 C36.7901377,31.4965162 36.2668763,30.2141522 35.2203379,29.1528695 C34.1737995,28.0915869 32.9092512,27.5609535 31.4266552,27.5609535 C29.9440591,27.5609535 28.7013134,28.0915869 27.6983808,29.1528695 C26.6954481,30.2141522 26.1939893,31.4965162 26.1939893,33 C26.1939893,34.5034838 26.6954481,35.7637381 27.6983808,36.7808006 C28.7013134,37.7978632 29.9440591,38.3063868 31.4266552,38.3063868 Z" id="Text" fill="#EBEBEB" sketch:type="MSShapeGroup"></path>
    </g>
</svg>