<?xml version="1.0" encoding="UTF-8" standalone="no"?>
<svg width="65px" height="65px" viewBox="0 0 65 65" version="1.1" xmlns="http://www.w3.org/2000/svg" xmlns:xlink="http://www.w3.org/1999/xlink" xmlns:sketch="http://www.bohemiancoding.com/sketch/ns">
    <!-- Generator: Sketch 3.0.3 (7891) - http://www.bohemiancoding.com/sketch -->
    <title>icon_close</title>
    <desc>Created with Sketch.</desc>
    <defs></defs>
    <g id="Page-1" stroke="none" stroke-width="1" fill="none" fill-rule="evenodd" sketch:type="MSPage">
        <path d="M62.2107826,49.9005217 C63.8228486,51.6591392 64.6288696,53.7108289 64.6288696,56.0556522 C64.6288696,58.4004755 63.8228486,60.4521651 62.2107826,62.2107826 C60.5987166,63.8228486 58.6203016,64.6288696 56.2754783,64.6288696 C54.0772064,64.6288696 52.0255168,63.8228486 50.1203478,62.2107826 L32.3144348,44.4048696 L14.7283478,61.9909565 C13.1162818,63.6030226 11.0645922,64.4090435 8.57321739,64.4090435 C6.08184262,64.4090435 4.03015299,63.6030226 2.41808696,61.9909565 C0.806020925,60.3788905 0,58.3638382 0,55.9457391 C0,53.5276401 0.806020925,51.5125878 2.41808696,49.9005217 L20.224,32.3144348 L2.63791304,14.5085217 C0.879295555,12.8964557 0,10.8814034 0,8.46330435 C0,6.0452053 0.879295555,4.03015299 2.63791304,2.41808696 C4.24997907,0.806020925 6.26503139,0 8.68313043,0 C11.1012295,0 13.1162818,0.806020925 14.7283478,2.41808696 L32.3144348,20.224 L50.1203478,2.63791304 C51.7324139,0.879295555 53.7474662,0.0366373148 56.1655652,0.109913043 C58.5836643,0.183188772 60.5987166,1.02584701 62.2107826,2.63791304 C63.9694001,4.24997907 64.8486957,6.26503139 64.8486957,8.68313043 C64.8486957,11.1012295 63.9694001,13.1162818 62.2107826,14.7283478 L44.6246957,32.3144348 L62.2107826,49.9005217 Z" id="Text" fill="#EBEBEB" sketch:type="MSShapeGroup"></path>
    </g>
</svg>