<?xml version="1.0" encoding="UTF-8" standalone="no"?>
<svg width="88px" height="88px" viewBox="0 0 88 88" version="1.1" xmlns="http://www.w3.org/2000/svg" xmlns:xlink="http://www.w3.org/1999/xlink">
    <!-- Generator: Sketch 39.1 (31720) - http://www.bohemiancoding.com/sketch -->
    <title>icon_audio</title>
    <desc>Created with Sketch.</desc>
    <defs></defs>
    <g id="Page-1" stroke="none" stroke-width="1" fill="none" fill-rule="evenodd">
        <g id="icon" transform="translate(5.000000, 4.000000)" stroke="#EBEBEB">
            <path d="M38.5200835,78.0595514 C48.8751228,78.0595514 58.2758396,73.9725825 65.1979342,67.3233277 C72.4970333,60.3119284 77.0401669,50.4515384 77.0401669,39.5297757 C77.0401669,18.2503682 59.7941381,1 38.5200835,1 C17.2460288,1 0,18.2503682 0,39.5297757 C0,60.8091833 17.2460288,78.0595514 38.5200835,78.0595514 Z" id="Oval-1" stroke-width="10"></path>
            <ellipse id="Oval-2" stroke-width="4" cx="38.5200835" cy="39.5297757" rx="20.2737281" ry="38.5297757"></ellipse>
            <path d="M1.01368641,40.5 L76.0264805,40.5" id="Line" stroke-width="5" stroke-linecap="square"></path>
            <path d="M38.5,0.928707241 L38.5,77.04561" id="Line" stroke-width="5" stroke-linecap="square"></path>
            <path d="M64.2835157,26.9960823 C57.6102626,20.2903665 48.5206801,16.1641633 38.5034908,16.1641633 C28.0500408,16.1641633 18.6067539,20.657595 11.8654534,27.8867583" id="Oval-4" stroke-width="4" transform="translate(38.074485, 22.025461) scale(-1, -1) translate(-38.074485, -22.025461) "></path>
            <path d="M64.2835157,64.2617639 C57.6102626,57.5560481 48.5206801,53.4298449 38.5034908,53.4298449 C28.0500408,53.4298449 18.6067539,57.9232766 11.8654534,65.1524399" id="Oval-5" stroke-width="4"></path>
        </g>
    </g>
</svg>