<?xml version="1.0" encoding="UTF-8" standalone="no"?>
<svg width="800px" height="800px" viewBox="0 0 800 800" version="1.1" xmlns="http://www.w3.org/2000/svg" xmlns:xlink="http://www.w3.org/1999/xlink" xmlns:sketch="http://www.bohemiancoding.com/sketch/ns">
    <!-- Generator: Sketch 3.0.1 (7597) - http://www.bohemiancoding.com/sketch -->
    <title>Vodcasts</title>
    <description>Created with Sketch.</description>
    <defs></defs>
    <g id="Page-1" stroke="none" stroke-width="1" fill="none" fill-rule="evenodd" sketch:type="MSPage">
        <path d="M370.226241,348.504203 C364.578444,345.034086 360,347.602055 360,354.220013 L360,470.779275 C360,477.406147 364.572283,479.96906 370.226241,476.495245 L464.157367,418.783586 C469.805164,415.313557 469.811326,409.691242 464.157367,406.217338 L370.226241,348.504203 Z" id="Triangle-6" fill="#CF0652" sketch:type="MSShapeGroup"></path>
        <path d="M503.912961,586.029788 C561.325095,551.440339 599.720238,488.522903 599.720238,416.643443 C599.720238,307.487983 511.176552,219 401.952381,219 C292.728209,219 204.184524,307.487983 204.184524,416.643443 C204.184524,487.174916 241.153088,549.077351 296.781968,584.054015 L338.425957,516.821833 C305.28501,495.78857 283.291667,458.782801 283.291667,416.643443 C283.291667,351.150167 336.417878,298.057377 401.952381,298.057377 C467.486884,298.057377 520.613095,351.150167 520.613095,416.643443 C520.613095,459.754836 497.593402,497.493074 463.167742,518.251736 L503.912961,586.029788 Z" id="Oval-15" fill="#D8D8D8" sketch:type="MSShapeGroup"></path>
        <path d="M170.542218,204.014579 C131.062106,246.740347 103.215297,300.383389 92.0352201,359.908166 L92.0352201,359.908166 L169.678468,374.828238 C178.038434,330.07793 198.956314,289.750677 228.633699,257.646479 L170.542218,204.014579 Z M215.71245,163.632603 C268.096899,125.114514 332.78118,102.360248 402.777778,102.360248 C577.404956,102.360248 718.968254,243.982871 718.968254,418.68323 C718.968254,532.848679 658.513221,632.888182 567.882753,688.509452 L567.882753,688.509452 L526.61931,621.04504 C594.585053,579.327524 639.920635,504.301942 639.920635,418.68323 C639.920635,287.657961 533.748161,181.440994 402.777778,181.440994 C350.329761,181.440994 301.858482,198.47457 262.589788,227.313687 L215.71245,163.632603 Z M86.5873019,418.669281 C86.5873017,418.673931 86.5873016,418.67858 86.5873016,418.68323 C86.5873016,451.003167 91.4324166,482.190992 100.435645,511.559417 L176.0233,488.347291 C169.269518,466.318951 165.634921,442.925721 165.634921,418.68323 C165.634921,418.679157 165.634921,418.675084 165.634921,418.671012 L86.5873019,418.669281 L86.5873019,418.669281 Z" id="Oval-14" fill="#CF0652" sketch:type="MSShapeGroup"></path>
    </g>
</svg>