<?xml version="1.0" encoding="UTF-8" standalone="no"?>
<svg width="66px" height="52px" viewBox="0 0 66 52" version="1.1" xmlns="http://www.w3.org/2000/svg" xmlns:xlink="http://www.w3.org/1999/xlink" xmlns:sketch="http://www.bohemiancoding.com/sketch/ns">
    <!-- Generator: Sketch 3.0.1 (7597) - http://www.bohemiancoding.com/sketch -->
    <title>checked</title>
    <description>Created with Sketch.</description>
    <defs></defs>
    <g id="Page-1" stroke="none" stroke-width="1" fill="none" fill-rule="evenodd" sketch:type="MSPage">
        <g id="Slices" sketch:type="MSLayerGroup" transform="translate(-256.000000, -24.000000)"></g>
        <path d="M17.4832417,49.3740274 L2.43437543,34.3251612 C0.811450361,32.7022361 0,30.6736102 0,28.2392226 C0,25.804835 0.811450361,23.7762091 2.43437543,22.153284 C4.20483913,20.3828203 6.27034914,19.4976017 8.63096742,19.4976017 C10.9915857,19.4976017 13.0570957,20.3828203 14.8275594,22.153284 L23.6798337,31.0055583 L50.9005771,3.34220118 C52.6710408,1.71927611 54.7365508,0.907825754 57.0971691,0.907825754 C59.4577874,0.907825754 61.5232974,1.71927611 63.2937611,3.34220118 C64.9166862,4.96512625 65.7281365,6.99375215 65.7281365,9.42813975 C65.7281365,11.8625273 64.9166862,13.8911532 63.2937611,15.5140783 L29.8764257,49.3740274 C27.9584233,50.9969525 25.8929133,51.8084029 23.6798337,51.8084029 C21.4667541,51.8084029 19.4012441,50.9969525 17.4832417,49.3740274 Z" id="Text" fill="#F5F5F5" sketch:type="MSShapeGroup"></path>
    </g>
</svg>