<?xml version="1.0" encoding="UTF-8" standalone="no"?>
<svg width="66px" height="65px" viewBox="0 0 66 65" version="1.1" xmlns="http://www.w3.org/2000/svg" xmlns:xlink="http://www.w3.org/1999/xlink" xmlns:sketch="http://www.bohemiancoding.com/sketch/ns">
    <!-- Generator: Sketch 3.0.1 (7597) - http://www.bohemiancoding.com/sketch -->
    <title>crossed</title>
    <description>Created with Sketch.</description>
    <defs></defs>
    <g id="Page-1" stroke="none" stroke-width="1" fill="none" fill-rule="evenodd" sketch:type="MSPage">
        <g id="Slices" sketch:type="MSLayerGroup" transform="translate(-256.000000, -111.000000)"></g>
        <path d="M62.4263377,50.0205211 C64.0384038,51.7791386 64.8444247,53.8308282 64.8444247,56.1756515 C64.8444247,58.5204748 64.0384038,60.5721645 62.4263377,62.3307819 C60.8142717,63.942848 58.8358567,64.7488689 56.4910334,64.7488689 C54.2927615,64.7488689 52.2410719,63.942848 50.335903,62.3307819 L32.5299899,44.5248689 L14.943903,62.1109559 C13.3318369,63.7230219 11.2801473,64.5290428 8.78877252,64.5290428 C6.29739775,64.5290428 4.24570812,63.7230219 2.63364209,62.1109559 C1.02157605,60.4988898 0.21555513,58.4838375 0.21555513,56.0657385 C0.21555513,53.6476394 1.02157605,51.6325871 2.63364209,50.0205211 L20.4395551,32.4344341 L2.85346817,14.6285211 C1.09485068,13.016455 0.21555513,11.0014027 0.21555513,8.58330368 C0.21555513,6.16520463 1.09485068,4.15015232 2.85346817,2.53808629 C4.4655342,0.926020259 6.48058652,0.119999333 8.89868556,0.119999333 C11.3167846,0.119999333 13.3318369,0.926020259 14.943903,2.53808629 L32.5299899,20.3439993 L50.335903,2.75791238 C51.947969,0.999294888 53.9630213,0.156636648 56.3811203,0.229912377 C58.7992194,0.303188106 60.8142717,1.14584635 62.4263377,2.75791238 C64.1849552,4.36997841 65.0642508,6.38503072 65.0642508,8.80312977 C65.0642508,11.2212288 64.1849552,13.2362811 62.4263377,14.8483472 L44.8402508,32.4344341 L62.4263377,50.0205211 Z" id="Text" fill="#F5F5F5" sketch:type="MSShapeGroup"></path>
    </g>
</svg>