<?xml version="1.0" encoding="UTF-8" standalone="no"?>
<svg width="16px" height="59px" viewBox="0 0 16 59" version="1.1" xmlns="http://www.w3.org/2000/svg" xmlns:xlink="http://www.w3.org/1999/xlink" xmlns:sketch="http://www.bohemiancoding.com/sketch/ns">
    <!-- Generator: Sketch 3.0.1 (7597) - http://www.bohemiancoding.com/sketch -->
    <title>info</title>
    <description>Created with Sketch.</description>
    <defs></defs>
    <g id="Page-1" stroke="none" stroke-width="1" fill="none" fill-rule="evenodd" sketch:type="MSPage">
        <g id="Slices" sketch:type="MSLayerGroup" transform="translate(-623.000000, -108.000000)"></g>
        <path d="M7.00218626,23 C4.23955507,23 2,25.2383594 2,28.0056458 L2,53.9943542 C2,56.7588961 4.22898489,59 7.00218626,59 L8.99781374,59 C11.7604449,59 14,56.7616406 14,53.9943542 L14,28.0056458 C14,25.2411039 11.7710151,23 8.99781374,23 L7.00218626,23 Z M8,16 C12.4182782,16 16,12.4182782 16,8 C16,3.58172178 12.4182782,0 8,0 C3.58172178,0 0,3.58172178 0,8 C0,12.4182782 3.58172178,16 8,16 Z" id="Rectangle-1" fill="#F5F5F5" sketch:type="MSShapeGroup"></path>
    </g>
</svg>