<?xml version="1.0" encoding="UTF-8" standalone="no"?>
<svg width="116px" height="138px" viewBox="0 0 116 138" version="1.1" xmlns="http://www.w3.org/2000/svg" xmlns:xlink="http://www.w3.org/1999/xlink" xmlns:sketch="http://www.bohemiancoding.com/sketch/ns">
    <!-- Generator: Sketch 3.0.1 (7597) - http://www.bohemiancoding.com/sketch -->
    <title>musicNote</title>
    <description>Created with Sketch.</description>
    <defs>
        <path d="M115.230769,14.2132867 L115.230769,102.755245 L115.166981,102.755245 C114.73213,108.290646 112.07914,114.130894 107.367255,118.842779 C98.3321972,127.877837 85.1483483,129.342709 77.9203023,122.114663 C70.6922562,114.886617 72.1571283,101.702768 81.1921859,92.6677103 C88.1254831,85.7344131 97.50187,83.2589541 104.755245,85.7486782 L104.755245,85.7486782 L104.755245,22.5699301 L41.9020979,38.2832168 L41.9020979,113.230769 L41.8383099,113.230769 C41.4034589,118.76617 38.7504682,124.606419 34.0385834,129.318304 C25.0035258,138.353361 11.819677,139.818233 4.59163093,132.590187 C-2.6364151,125.362141 -1.17154301,112.178292 7.86351453,103.143235 C14.7968118,96.2099375 24.1731986,93.7344786 31.4265734,96.2242027 L31.4265734,96.2242027 L31.4265734,35.1643357 L31.4265734,25.9547787 C31.4265734,22.6471412 34.0351472,19.2989055 37.252986,18.4944458 L109.404357,0.456603136 C112.63078,-0.350002606 115.230769,1.68796137 115.230769,5.00372976 L115.230769,14.2132867 Z" id="path-1"></path>
    </defs>
    <g id="Page-1" stroke="none" stroke-width="1" fill="none" fill-rule="evenodd" sketch:type="MSPage">
        <g id="Music-2">
            <use fill="none" sketch:type="MSShapeGroup" xlink:href="#path-1"></use>
            <use fill="none" xlink:href="#path-1"></use>
            <use fill="#F5F5F5" fill-rule="evenodd" xlink:href="#path-1"></use>
        </g>
    </g>
</svg>