<?xml version="1.0" encoding="UTF-8" standalone="no"?>
<svg width="800px" height="800px" viewBox="0 0 800 800" version="1.1" xmlns="http://www.w3.org/2000/svg" xmlns:xlink="http://www.w3.org/1999/xlink" xmlns:sketch="http://www.bohemiancoding.com/sketch/ns">
    <!-- Generator: Sketch 3.0.2 (7799) - http://www.bohemiancoding.com/sketch -->
    <title>Vodcasts 2</title>
    <description>Created with Sketch.</description>
    <defs>
        <path d="M515.600573,285.620136 L515.600573,504.38849 L515.443028,504.38849 C514.369019,518.06529 507.816579,532.495302 496.179018,544.137368 C473.863949,566.461074 441.302065,570.080461 423.45001,552.221496 C405.597955,534.362531 409.215942,501.788044 431.531011,479.464337 C448.655087,462.333634 471.813182,456.217301 489.727795,462.36888 L489.727794,462.368881 L489.727794,306.267625 L334.491118,345.091816 L334.491118,530.271284 L334.333572,530.271284 C333.259563,543.948084 326.707124,558.378096 315.069562,570.020161 C292.754493,592.343868 260.192609,595.963255 242.340554,578.10429 C224.488499,560.245325 228.106486,527.670838 250.421555,505.347131 C267.545631,488.216427 290.703726,482.100095 308.618339,488.251674 L308.618338,488.251675 L308.618338,337.385724 L308.618338,315.803698 C308.618338,306.967516 315.564622,298.059684 324.133298,295.916686 L500.085614,251.91158 C508.654718,249.768475 515.600573,255.197815 515.600573,264.038111 L515.600573,285.620136 Z" id="path-1"></path>
    </defs>
    <g id="Page-1" stroke="none" stroke-width="1" fill="none" fill-rule="evenodd" sketch:type="MSPage">
        <path d="M159.92303,201.874264 C118.633559,246.554019 89.5103465,302.649807 77.8172214,364.896167 L77.8172214,364.896167 L159.021554,380.501786 C167.764551,333.706432 189.640038,291.536009 220.676034,257.963732 L159.92303,201.874264 Z M207.167342,159.642343 C261.954714,119.361834 329.60609,95.5664371 402.813456,95.5664371 C585.451055,95.5664371 733.508082,243.669409 733.508082,426.363683 C733.508082,545.76073 670.2718,650.38357 575.473877,708.547729 L575.473877,708.547729 L532.318611,637.99568 C603.411589,594.371358 650.834426,515.907338 650.834426,426.363683 C650.834426,289.342977 539.791655,178.265749 402.813456,178.265749 C347.957423,178.265749 297.260872,196.080137 256.190009,226.241014 L207.167342,159.642343 Z M72.1188294,426.35288 C72.1188292,426.356481 72.1188292,426.360082 72.1188292,426.363683 C72.1188292,460.157667 77.1847449,492.768077 86.5983701,523.476482 L165.653829,499.203788 C158.592528,476.170876 154.792486,451.711191 154.792486,426.363683 L72.1188293,426.35288 L72.1188294,426.35288 Z" id="Oval-18" fill="#CF0652" sketch:type="MSShapeGroup"></path>
        <g id="Music-2">
            <use fill="none" sketch:type="MSShapeGroup" xlink:href="#path-1"></use>
            <use fill="none" xlink:href="#path-1"></use>
            <use fill-opacity="0.798680842" fill="#EBEBEB" fill-rule="evenodd" xlink:href="#path-1"></use>
        </g>
    </g>
</svg>