<?xml version="1.0" encoding="UTF-8" standalone="no"?>
<svg width="118px" height="113px" viewBox="0 0 118 113" version="1.1" xmlns="http://www.w3.org/2000/svg" xmlns:xlink="http://www.w3.org/1999/xlink" xmlns:sketch="http://www.bohemiancoding.com/sketch/ns">
    <!-- Generator: Sketch 3.2.2 (9983) - http://www.bohemiancoding.com/sketch -->
    <title>play_mode_2</title>
    <desc>Created with Sketch.</desc>
    <defs></defs>
    <g id="Page-1" stroke="none" stroke-width="1" fill="none" fill-rule="evenodd" sketch:type="MSPage">
        <path d="M11.0560339,65.388256 L11.0560339,65.388256 C13.1928158,64.4939989 15.5387181,64 18,64 M23.5458399,64.8705374 C23.5153991,64.2508599 23.5,63.6272283 23.5,63 M59.4318508,25.5321938 C58.3746475,23.240718 57.7849097,20.6892293 57.7849097,18 C57.7849097,16.2879496 58.0239309,14.6317256 58.4704236,13.0628776 M92.6539654,24.2937089 C103.852938,33.4630838 111,47.3968985 111,63 C111,90.6142389 88.6142389,113 61,113 C47.1739563,113 34.6586176,107.388208 25.6074749,98.3181152 C29.493873,96.503184 32.6247232,93.3407307 34.3990199,89.4317609 C41.1917525,96.2677092 50.6016237,100.5 61,100.5 C81.7106791,100.5 98.5,83.7106791 98.5,63 C98.5,51.1789921 93.0304265,40.6354723 84.4839907,33.7621518 C88.2203645,31.6956563 91.1439719,28.3392263 92.6539654,24.2937089" id="clock-4" fill="#EBEBEB" sketch:type="MSShapeGroup"></path>
        <circle id="Oval-32" fill="#2FB70B" sketch:type="MSShapeGroup" cx="18" cy="82" r="18"></circle>
        <circle id="Oval-31" fill="#EBEBEB" sketch:type="MSShapeGroup" cx="100" cy="91" r="18"></circle>
        <circle id="Oval-30" fill="#EBEBEB" sketch:type="MSShapeGroup" cx="75.7849097" cy="18" r="18"></circle>
        <path d="M70.9294974,79.9746094 L69.1523465,74.4042969 L54.0211758,74.4042969 L52.2440249,80.0957031 C51.5500863,82.3157663 50.9577086,83.8142865 50.466874,84.5913086 C49.9760394,85.3683307 49.1720982,85.7568359 48.0550263,85.7568359 C47.1072078,85.7568359 46.2694164,85.3431031 45.5416272,84.515625 C44.8138379,83.6881469 44.4499487,82.7496797 44.4499487,81.7001953 C44.4499487,81.0947235 44.5345741,80.4690787 44.7038275,79.8232422 C44.8730808,79.1774056 45.1523445,78.2793026 45.5416272,77.1289062 L55.0620785,48.3085938 C55.3328838,47.4811157 55.6586916,46.4871477 56.0395115,45.3266602 C56.4203315,44.1661726 56.8265333,43.2024778 57.2581293,42.4355469 C57.6897252,41.668616 58.2567153,41.0480167 58.9591166,40.5737305 C59.6615178,40.0994442 60.5289281,39.8623047 61.5613733,39.8623047 C62.6107438,39.8623047 63.4866166,40.0994442 64.1890179,40.5737305 C64.8914191,41.0480167 65.4584092,41.6585249 65.8900052,42.4052734 C66.3216011,43.152022 66.6854903,43.95426 66.9816836,44.8120117 C67.2778769,45.6697634 67.6544599,46.815097 68.1114438,48.2480469 L77.8349981,76.8867188 C78.596638,79.0664171 78.9774523,80.6507112 78.9774523,81.6396484 C78.9774523,82.6689505 78.6177944,83.6124632 77.8984678,84.4702148 C77.1791412,85.3279665 76.311731,85.7568359 75.2962111,85.7568359 C74.7038245,85.7568359 74.1960722,85.6306979 73.7729389,85.378418 C73.3498056,85.1261381 72.994379,84.7830425 72.7066483,84.3491211 C72.4189177,83.9151997 72.110035,83.2491907 71.7799911,82.3510742 C71.4499471,81.4529577 71.166452,80.6608107 70.9294974,79.9746094 L70.9294974,79.9746094 Z M56.0014297,67.6533203 L67.1213169,67.6533203 L61.5105975,49.3378906 L56.0014297,67.6533203 Z" id="A" fill="#EBEBEB" sketch:type="MSShapeGroup"></path>
    </g>
</svg>