<?xml version="1.0" encoding="UTF-8" standalone="no"?>
<svg width="116px" height="109px" viewBox="0 0 116 109" version="1.1" xmlns="http://www.w3.org/2000/svg" xmlns:xlink="http://www.w3.org/1999/xlink" xmlns:sketch="http://www.bohemiancoding.com/sketch/ns">
    <!-- Generator: Sketch 3.2.2 (9983) - http://www.bohemiancoding.com/sketch -->
    <title>play_mode_1</title>
    <desc>Created with Sketch.</desc>
    <defs></defs>
    <g id="Page-1" stroke="none" stroke-width="1" fill="none" fill-rule="evenodd" sketch:type="MSPage">
        <circle id="Oval-27" fill="#2FB70B" sketch:type="MSShapeGroup" cx="18" cy="82" r="18"></circle>
        <circle id="Oval-28" fill="#EBEBEB" sketch:type="MSShapeGroup" cx="98" cy="91" r="18"></circle>
        <circle id="Oval-29" fill="#EBEBEB" sketch:type="MSShapeGroup" cx="73.7849097" cy="18" r="18"></circle>
        <path d="M57.5284489,54.9184206 C51.9324009,59.0273214 48.1650392,60.0376979 46.2262509,60.0376979 C45.3009201,60.0376979 44.4802522,59.6847592 43.7642224,58.9788711 C43.0481926,58.272983 42.6901831,57.4564829 42.6901831,56.5293464 C42.6901831,55.4547108 43.0426848,54.6645494 43.7476987,54.1588385 C44.4527127,53.6531277 45.6974842,52.9999276 47.4820507,52.1992188 C50.1478846,50.9981555 52.2794182,49.7338973 53.8767154,48.4064063 C55.4740125,47.0789152 56.8895271,45.5934119 58.1233015,43.9498516 C59.3570758,42.3062913 60.1612203,41.2948847 60.5357589,40.9156016 C60.9102976,40.5363184 61.6153009,40.3466797 62.6507901,40.3466797 C63.8184695,40.3466797 64.754802,40.7786346 65.459816,41.6425573 C66.1648299,42.50648 66.5173316,43.6969898 66.5173316,45.2141224 L66.5173316,81.403875 C66.5173316,85.6392035 65.0081838,87.7568359 61.9898429,87.7568359 C60.6459101,87.7568359 59.5663737,87.3248811 58.7512013,86.4609583 C57.936029,85.5970356 57.5284489,84.3222419 57.5284489,82.6365391 L57.5284489,54.9184206 Z" id="1" fill="#EBEBEB" sketch:type="MSShapeGroup"></path>
    </g>
</svg>