<?xml version="1.0" encoding="UTF-8" standalone="no"?>
<svg width="118px" height="113px" viewBox="0 0 118 113" version="1.1" xmlns="http://www.w3.org/2000/svg" xmlns:xlink="http://www.w3.org/1999/xlink" xmlns:sketch="http://www.bohemiancoding.com/sketch/ns">
    <!-- Generator: Sketch 3.2.2 (9983) - http://www.bohemiancoding.com/sketch -->
    <title>play_mode_3</title>
    <desc>Created with Sketch.</desc>
    <defs></defs>
    <g id="Page-1" stroke="none" stroke-width="1" fill="none" fill-rule="evenodd" sketch:type="MSPage">
        <path d="M58.4704236,13.0628776 C32.0315333,14.3802868 11,36.2340531 11,63 C11,63.8006197 11.0188173,64.5968445 11.0560339,65.388256 L11.0560339,65.388256 C13.1928158,64.4939989 15.5387181,64 18,64 C19.9351213,64 21.7989208,64.3053653 23.5458399,64.8705374 C23.5153991,64.2508599 23.5,63.6272283 23.5,63 C23.5,42.81463 39.4484278,26.3542171 59.4318508,25.5321938 C58.3746475,23.240718 57.7849097,20.6892293 57.7849097,18 C57.7849097,16.2879496 58.0239309,14.6317256 58.4704236,13.0628776 Z M92.6539654,24.2937089 C103.852938,33.4630838 111,47.3968985 111,63 C111,90.6142389 88.6142389,113 61,113 C47.1739563,113 34.6586176,107.388208 25.6074749,98.3181152 C29.493873,96.503184 32.6247232,93.3407307 34.3990199,89.4317609 C41.1917525,96.2677092 50.6016237,100.5 61,100.5 C81.7106791,100.5 98.5,83.7106791 98.5,63 C98.5,51.1789921 93.0304265,40.6354723 84.4839907,33.7621518 C88.2203645,31.6956563 91.1439719,28.3392263 92.6539654,24.2937089 Z" id="clock-6" fill="#EBEBEB" sketch:type="MSShapeGroup"></path>
        <circle id="Oval-37" fill="#2FB70B" sketch:type="MSShapeGroup" cx="18" cy="82" r="18"></circle>
        <circle id="Oval-36" fill="#EBEBEB" sketch:type="MSShapeGroup" cx="100" cy="91" r="18"></circle>
        <circle id="Oval-35" fill="#EBEBEB" sketch:type="MSShapeGroup" cx="75.7849097" cy="18" r="18"></circle>
        <path d="M55.9484041,44.3115234 L55.9484041,76.6132812 L73.1801677,76.6132812 C74.5541358,76.6132812 75.6084497,76.9664678 76.3431409,77.6728516 C77.0778322,78.3792353 77.4451723,79.2672473 77.4451723,80.3369141 C77.4451723,81.4267633 77.0826029,82.3097297 76.357453,82.9858398 C75.6323032,83.66195 74.5732187,84 73.1801677,84 L52.656622,84 C50.8055817,84 49.4745701,83.5660851 48.6635472,82.6982422 C47.8525244,81.8303993 47.4470191,80.4277441 47.4470191,78.4902344 L47.4470191,44.3115234 C47.4470191,42.4951081 47.8334418,41.132817 48.6062988,40.2246094 C49.3791559,39.3164017 50.3953045,38.8623047 51.6547753,38.8623047 C52.9333289,38.8623047 53.9685602,39.3113562 54.7605001,40.2094727 C55.5524401,41.1075891 55.9484041,42.4749257 55.9484041,44.3115234 L55.9484041,44.3115234 Z" id="L" fill="#EBEBEB" sketch:type="MSShapeGroup"></path>
    </g>
</svg>