<?xml version="1.0" encoding="UTF-8" standalone="no"?>
<svg width="102px" height="51px" viewBox="0 0 102 51" version="1.1" xmlns="http://www.w3.org/2000/svg" xmlns:xlink="http://www.w3.org/1999/xlink" xmlns:sketch="http://www.bohemiancoding.com/sketch/ns">
    <!-- Generator: Sketch 3.0.1 (7597) - http://www.bohemiancoding.com/sketch -->
    <title>scrollDown</title>
    <description>Created with Sketch.</description>
    <defs></defs>
    <g id="Page-1" stroke="none" stroke-width="1" fill="none" fill-rule="evenodd" sketch:type="MSPage">
        <g id="Slices" sketch:type="MSLayerGroup" transform="translate(-11.000000, -125.000000)"></g>
        <path d="M45.6977632,48.8648281 L4.93844114,17.8303453 C2.66046365,16.1751646 1.35878175,14.023462 1.0333564,11.3751729 C0.70793104,8.72688379 1.35877199,6.32690779 2.98589877,4.1751729 C4.61302555,2.023438 6.68758107,0.740692207 9.20962758,0.326897034 C11.7316741,-0.0868981379 14.050295,0.53378531 16.1655598,2.188966 L51.5553903,29.0027591 L86.2130174,2.188966 C88.3282822,0.53378531 90.6875807,-0.128277034 93.2909835,0.202759103 C95.8943864,0.533795241 98.0096194,1.77516214 99.6367462,3.92689703 C101.263873,6.07863193 101.914714,8.47860793 101.589289,11.126897 C101.263863,13.7751861 99.9621813,15.9268888 97.6842039,17.5820694 L57.1689496,48.8648281 C55.3791102,50.1889726 53.5079424,50.851035 51.5553903,50.851035 C49.4401255,50.851035 47.4876026,50.1889726 45.6977632,48.8648281 Z" id="ó°€" fill="#F5F5F5" sketch:type="MSShapeGroup"></path>
    </g>
</svg>