<?xml version="1.0" encoding="UTF-8" standalone="no"?>
<svg width="101px" height="52px" viewBox="0 0 101 52" version="1.1" xmlns="http://www.w3.org/2000/svg" xmlns:xlink="http://www.w3.org/1999/xlink" xmlns:sketch="http://www.bohemiancoding.com/sketch/ns">
    <!-- Generator: Sketch 3.0.1 (7597) - http://www.bohemiancoding.com/sketch -->
    <title>scrollUp</title>
    <description>Created with Sketch.</description>
    <defs></defs>
    <g id="Page-1" stroke="none" stroke-width="1" fill="none" fill-rule="evenodd" sketch:type="MSPage">
        <g id="Slices" sketch:type="MSLayerGroup" transform="translate(-11.000000, -24.000000)"></g>
        <path d="M45.6977632,49.8648281 L4.93844114,18.8303453 C2.66046365,17.1751646 1.35878175,15.023462 1.0333564,12.3751729 C0.70793104,9.72688379 1.35877199,7.32690779 2.98589877,5.1751729 C4.61302555,3.023438 6.68758107,1.74069221 9.20962758,1.32689703 C11.7316741,0.913101862 14.050295,1.53378531 16.1655598,3.188966 L51.5553903,30.0027591 L86.2130174,3.188966 C88.3282822,1.53378531 90.6875807,0.871722966 93.2909835,1.2027591 C95.8943864,1.53379524 98.0096194,2.77516214 99.6367462,4.92689703 C101.263873,7.07863193 101.914714,9.47860793 101.589289,12.126897 C101.263863,14.7751861 99.9621813,16.9268888 97.6842039,18.5820694 L57.1689496,49.8648281 C55.3791102,51.1889726 53.5079424,51.851035 51.5553903,51.851035 C49.4401255,51.851035 47.4876026,51.1889726 45.6977632,49.8648281 Z" id="ó°€-copy" fill="#F5F5F5" sketch:type="MSShapeGroup" transform="translate(50.951999, 26.119999) rotate(-180.000000) translate(-50.951999, -26.119999) "></path>
    </g>
</svg>