<?xml version="1.0" encoding="UTF-8" standalone="no"?>
<svg width="62px" height="62px" viewBox="0 0 62 62" version="1.1" xmlns="http://www.w3.org/2000/svg" xmlns:xlink="http://www.w3.org/1999/xlink" xmlns:sketch="http://www.bohemiancoding.com/sketch/ns">
    <!-- Generator: Sketch 3.0.1 (7597) - http://www.bohemiancoding.com/sketch -->
    <title>search</title>
    <description>Created with Sketch.</description>
    <defs></defs>
    <g id="Page-1" stroke="none" stroke-width="1" fill="none" fill-rule="evenodd" sketch:type="MSPage">
        <g id="Slices" sketch:type="MSLayerGroup" transform="translate(-382.000000, -111.000000)"></g>
        <path d="M59.4320108,59.981281 C57.058548,62.2905962 53.2439312,62.2416283 50.9267369,59.88706 L40.2072381,48.994666 C35.8735021,51.5628058 31.2990717,52.8468565 26.4838095,52.8468565 C22.7921085,52.8468565 19.3412224,52.1647046 16.1310476,50.8003803 C12.9208728,49.436056 10.112012,47.5501066 7.70438095,45.1424755 C5.29674987,42.7348444 3.41080047,39.9259836 2.04647619,36.7158089 C0.682151909,33.5056341 0,30.054748 0,26.363047 C0,22.8318547 0.682151909,19.4612217 2.04647619,16.251047 C3.41080047,13.0408722 5.29674987,10.2320114 7.70438095,7.82438029 C10.112012,5.4167492 12.9208728,3.53079981 16.1310476,2.16647552 C19.3412224,0.802151242 22.7921085,0.119999333 26.4838095,0.119999333 C30.0150018,0.119999333 33.3856347,0.802151242 36.5958095,2.16647552 C39.8059843,3.53079981 42.6148451,5.4167492 45.0224762,7.82438029 C47.4301073,10.2320114 49.3160567,13.0408722 50.680381,16.251047 C52.0447052,19.4612217 52.7268571,22.8318547 52.7268571,26.363047 C52.7268571,31.8203441 51.4428065,36.3947745 48.8746667,40.0864755 L59.8376759,51.2235007 C62.1600282,53.5827158 62.1206894,57.3652694 59.745132,59.6766225 L59.4320108,59.981281 Z M26.4838095,41.531047 C30.6570367,41.531047 34.2283026,40.08649 37.1977143,37.1973327 C40.167126,34.3081754 41.6518095,30.7770361 41.6518095,26.6038089 C41.6518095,22.4305816 40.167126,18.8593158 37.1977143,15.8899041 C34.2283026,12.9204924 30.6570367,11.4358089 26.4838095,11.4358089 C22.3105823,11.4358089 18.779443,12.9204924 15.8902857,15.8899041 C13.0011284,18.8593158 11.5565714,22.4305816 11.5565714,26.6038089 C11.5565714,30.7770361 13.0011284,34.3081754 15.8902857,37.1973327 C18.779443,40.08649 22.3105823,41.531047 26.4838095,41.531047 Z" id="Text" fill="#F5F5F5" sketch:type="MSShapeGroup"></path>
    </g>
</svg>