<?xml version="1.0" encoding="UTF-8" standalone="no"?>
<svg width="63px" height="64px" viewBox="0 0 63 64" version="1.1" xmlns="http://www.w3.org/2000/svg" xmlns:xlink="http://www.w3.org/1999/xlink" xmlns:sketch="http://www.bohemiancoding.com/sketch/ns">
    <!-- Generator: Sketch 3.0.1 (7597) - http://www.bohemiancoding.com/sketch -->
    <title>settings</title>
    <description>Created with Sketch.</description>
    <defs></defs>
    <g id="Page-1" stroke="none" stroke-width="1" fill="none" fill-rule="evenodd" sketch:type="MSPage">
        <g id="Slices" sketch:type="MSLayerGroup" transform="translate(-511.000000, -21.000000)"></g>
        <path d="M56.8704928,34.0618951 C56.826887,34.6809766 56.7614794,35.3442683 56.6742678,36.0517901 C58.0696524,36.8477521 59.5304236,37.5110439 61.0566255,38.0416852 C62.5828273,38.5723265 61.0566255,38.0416852 61.0566255,38.0416852 C62.6822063,38.6278125 63.3194839,40.7592113 62.481758,42.7980793 L60.9396594,46.5512582 C60.1011575,48.5920148 57.7783797,49.5182218 56.6088595,48.986108 C56.6088595,48.986108 58.0478498,49.6494097 56.6088595,48.986108 C55.1698692,48.3228064 53.6654928,47.7700633 52.0956852,47.3278622 C50.4386661,49.5388677 48.5636462,51.3960845 46.4705694,52.8995683 C46.9066271,54.4914923 47.4734936,56.0170633 48.1711858,57.476327 C48.8688781,58.9355907 48.1711858,57.476327 48.1711858,57.476327 C48.8936662,59.0515441 47.8342481,61.0236272 45.7897392,61.8875077 L42.1803671,63.4126006 C40.1426501,64.2736113 37.8797271,63.2869316 37.4442209,62.0530856 C37.4442209,62.0530856 37.9674901,63.5565694 37.4442209,62.0530856 C36.9209517,60.5496018 36.2232699,59.0461406 35.3511545,57.5426568 C34.0429815,57.8079775 32.7348282,57.9406358 31.4266552,57.9406358 C30.1184822,57.9406358 28.8103288,57.8079775 27.5021558,57.5426568 C26.717252,59.0461406 26.0631753,60.5496018 25.5399061,62.0530856 C25.0166369,63.5565694 25.5399061,62.0530856 25.5399061,62.0530856 C24.9619218,63.6649357 22.8406909,64.2814947 20.8062137,63.4319664 L17.0611173,61.8681419 C15.0247555,61.0178266 14.1682312,58.7237321 14.7475328,57.476327 C14.7475328,57.476327 14.0934463,58.9355907 14.7475328,57.476327 C15.4016193,56.0170633 15.9466832,54.4914923 16.3827409,52.8995683 C14.2896641,51.3076443 12.4582494,49.4504275 10.8884418,47.3278622 C9.31863416,47.7700633 7.81425778,48.3228064 6.37526748,48.986108 C4.93627718,49.6494097 6.37526748,48.986108 6.37526748,48.986108 C4.82193465,49.6821342 2.88219346,48.5901261 2.04446754,46.5512582 L0.502369034,42.7980793 C-0.336132897,40.7573227 0.660954579,38.4776075 1.86209319,38.0416852 C1.86209319,38.0416852 0.379497128,38.5723265 1.86209319,38.0416852 C3.34468926,37.5110439 4.82726309,36.8477521 6.30985915,36.0517901 C6.04822455,34.7251868 5.91740922,33.3986033 5.91740922,32.072 C5.91740922,30.6569564 6.04822455,29.330373 6.30985915,28.0922099 C4.82726309,27.2078076 3.34468926,26.5002965 1.86209319,25.9696551 C0.379497128,25.4390138 1.86209319,25.9696551 1.86209319,25.9696551 C0.272636346,25.3835278 -0.33535689,23.252129 0.502369034,21.213261 L2.04446754,17.4600821 C2.88296947,15.4193255 5.19054785,14.5201791 6.37526748,15.0915621 C6.37526748,15.0915621 4.93627718,14.3840403 6.37526748,15.0915621 C7.81425778,15.7990839 9.31863416,16.3739367 10.8884418,16.8161378 C12.3710378,14.6935725 14.2024526,12.7921362 16.3827409,11.111772 C15.9466832,9.51984798 15.4016193,7.99427702 14.7475328,6.53501334 C14.0934463,5.07574967 14.7475328,6.53501334 14.7475328,6.53501334 C13.9889284,4.95979621 14.9395164,2.82004669 16.8911,1.78819044 C16.8911,1.78819044 16.9059983,1.69293933 18.7374405,0.896977329 C20.5688827,0.101015323 20.660381,0.187015518 20.660381,0.187015518 C22.777284,-0.446606186 25.0931606,0.726125195 25.5399061,2.02458453 C25.5399061,2.02458453 25.0166369,0.476880632 25.5399061,2.02458453 C26.0631753,3.57228843 26.717252,5.05363994 27.5021558,6.46868351 C28.8103288,6.20336284 30.1184822,6.0707045 31.4266552,6.0707045 C32.7348282,6.0707045 34.0429815,6.20336284 35.3511545,6.46868351 C36.2232699,5.05363994 36.9209517,3.57228843 37.4442209,2.02458453 C37.9674901,0.476880632 37.4442209,2.02458453 37.4442209,2.02458453 C38.0222052,0.376101485 40.1358582,-0.265140805 42.1803671,0.598739698 L45.7897392,2.12383266 C47.8274563,2.98484334 48.7417145,5.31822984 48.1711858,6.53501334 C48.1711858,6.53501334 48.8688781,5.07574967 48.1711858,6.53501334 C47.4734936,7.99427702 46.9066271,9.51984798 46.4705694,11.111772 C48.6508578,12.703696 50.5258776,14.6051323 52.0956852,16.8161378 C53.6654928,16.3739367 55.1698692,15.7990839 56.6088595,15.0915621 C58.0478498,14.3840403 56.6088595,15.0915621 56.6088595,15.0915621 C58.1621923,14.358903 60.1019335,15.4212142 60.9396594,17.4600821 L62.481758,21.213261 C63.3202599,23.2540177 62.3212022,25.5223074 61.0566255,25.9696551 C61.0566255,25.9696551 62.5828273,25.4390138 61.0566255,25.9696551 C59.5304236,26.5002965 58.0696524,27.2078076 56.6742678,28.0922099 C56.7614794,28.7112914 56.826887,29.3524734 56.8704928,30.0157751 C56.9140986,30.6790768 56.9359011,31.3644782 56.9359011,32.072 C56.9359011,32.7795218 56.9140986,33.4428135 56.8704928,34.0618951 Z M31.4266552,48.9197782 C33.7813666,48.9197782 35.9616222,48.4775837 37.9674875,47.5931815 C39.9733527,46.7087793 41.7393598,45.5148542 43.2655616,44.0113704 C44.7917635,42.5078866 45.9909041,40.7169989 46.8630194,38.6386537 C47.7351347,36.5603085 48.1711858,34.3714458 48.1711858,32.072 C48.1711858,29.684114 47.7351347,27.4731416 46.8630194,25.4390165 C45.9909041,23.4048913 44.7917635,21.6140037 43.2655616,20.0662998 C41.7393598,18.5185959 39.9733527,17.3025611 37.9674875,16.4181588 C35.9616222,15.5337566 33.7813666,15.0915621 31.4266552,15.0915621 C29.1591553,15.0915621 27.0007022,15.5337566 24.9512312,16.4181588 C22.9017602,17.3025611 21.1357531,18.5185959 19.653157,20.0662998 C18.170561,21.6140037 16.9932229,23.4048913 16.1211076,25.4390165 C15.2489923,27.4731416 14.8129411,29.684114 14.8129411,32.072 C14.8129411,34.3714458 15.2489923,36.5603085 16.1211076,38.6386537 C16.9932229,40.7169989 18.170561,42.5078866 19.653157,44.0113704 C21.1357531,45.5148542 22.9017602,46.7087793 24.9512312,47.5931815 C27.0007022,48.4775837 29.1591553,48.9197782 31.4266552,48.9197782 Z M31.4266552,19.7346506 C33.0836743,19.7346506 34.6534584,20.0662965 36.1360544,20.7295981 C37.6186505,21.3928998 38.9050013,22.2772888 39.9951455,23.3827916 C41.0852896,24.4882943 41.9355893,25.7927681 42.5460701,27.2962518 C43.1565508,28.7997356 43.4617866,30.3916358 43.4617866,32.072 C43.4617866,33.7523642 43.1565508,35.3221546 42.5460701,36.7814183 C41.9355893,38.240682 41.0852896,39.523046 39.9951455,40.6285488 C38.9050013,41.7340516 37.6186505,42.6184405 36.1360544,43.2817422 C34.6534584,43.9450439 33.0836743,44.2766897 31.4266552,44.2766897 C29.769636,44.2766897 28.199852,43.9450439 26.7172559,43.2817422 C25.2346598,42.6184405 23.948309,41.7340516 22.8581649,40.6285488 C21.7680207,39.523046 20.917721,38.240682 20.3072403,36.7814183 C19.6967595,35.3221546 19.3915237,33.7523642 19.3915237,32.072 C19.3915237,30.3916358 19.6967595,28.7997356 20.3072403,27.2962518 C20.917721,25.7927681 21.7680207,24.4882943 22.8581649,23.3827916 C23.948309,22.2772888 25.2346598,21.3928998 26.7172559,20.7295981 C28.199852,20.0662965 29.769636,19.7346506 31.4266552,19.7346506 Z M31.4266552,37.3783868 C32.9092512,37.3783868 34.1737995,36.8698632 35.2203379,35.8528006 C36.2668763,34.8357381 36.7901377,33.5754838 36.7901377,32.072 C36.7901377,30.5685162 36.2668763,29.2861522 35.2203379,28.2248695 C34.1737995,27.1635869 32.9092512,26.6329535 31.4266552,26.6329535 C29.9440591,26.6329535 28.7013134,27.1635869 27.6983808,28.2248695 C26.6954481,29.2861522 26.1939893,30.5685162 26.1939893,32.072 C26.1939893,33.5754838 26.6954481,34.8357381 27.6983808,35.8528006 C28.7013134,36.8698632 29.9440591,37.3783868 31.4266552,37.3783868 Z" id="Text" fill="#F5F5F5" sketch:type="MSShapeGroup"></path>
    </g>
</svg>